G04 #@! TF.GenerationSoftware,KiCad,Pcbnew,(5.1.8)-1*
G04 #@! TF.CreationDate,2021-05-24T17:48:50-05:00*
G04 #@! TF.ProjectId,PIC16_Ring_of_Fire_Game,50494331-365f-4526-996e-675f6f665f46,1A*
G04 #@! TF.SameCoordinates,Original*
G04 #@! TF.FileFunction,Copper,L2,Bot*
G04 #@! TF.FilePolarity,Positive*
%FSLAX46Y46*%
G04 Gerber Fmt 4.6, Leading zero omitted, Abs format (unit mm)*
G04 Created by KiCad (PCBNEW (5.1.8)-1) date 2021-05-24 17:48:50*
%MOMM*%
%LPD*%
G01*
G04 APERTURE LIST*
G04 #@! TA.AperFunction,Profile*
%ADD10C,0.254000*%
G04 #@! TD*
G04 #@! TA.AperFunction,SMDPad,CuDef*
%ADD11R,4.000000X3.000000*%
G04 #@! TD*
G04 #@! TA.AperFunction,ViaPad*
%ADD12C,0.800000*%
G04 #@! TD*
G04 #@! TA.AperFunction,Conductor*
%ADD13C,0.254000*%
G04 #@! TD*
G04 #@! TA.AperFunction,Conductor*
%ADD14C,0.127000*%
G04 #@! TD*
G04 #@! TA.AperFunction,Conductor*
%ADD15C,0.150000*%
G04 #@! TD*
G04 #@! TA.AperFunction,Conductor*
%ADD16C,0.025400*%
G04 #@! TD*
G04 APERTURE END LIST*
D10*
X83500000Y-125000000D02*
X116500000Y-125000000D01*
X120000000Y-121500000D02*
G75*
G02*
X116500000Y-125000000I-3500000J0D01*
G01*
X120000000Y-78500000D02*
X120000000Y-121500000D01*
X116500000Y-75000000D02*
G75*
G02*
X120000000Y-78500000I0J-3500000D01*
G01*
X83500000Y-75000000D02*
X116500000Y-75000000D01*
X80000000Y-78500000D02*
G75*
G02*
X83500000Y-75000000I3500000J0D01*
G01*
X83500000Y-125000000D02*
G75*
G02*
X80000000Y-121500000I0J3500000D01*
G01*
X80000000Y-78500000D02*
X80000000Y-121500000D01*
D11*
X100000000Y-114650000D03*
X100000000Y-85350000D03*
D12*
X92049998Y-91190000D03*
X104500000Y-91190000D03*
X100000000Y-105000000D03*
X90291797Y-102053422D03*
X96291797Y-106412677D03*
X103708203Y-106412677D03*
X109708202Y-102053421D03*
X111999998Y-95000000D03*
X109708202Y-87946579D03*
X103726105Y-83591293D03*
X96291798Y-83587324D03*
X90291799Y-87946578D03*
X88000000Y-95000000D03*
X100000000Y-121250000D03*
X97000000Y-114250000D03*
X92049998Y-95000000D03*
X97525000Y-90000000D03*
D13*
X97525000Y-87336200D02*
X97525000Y-90000000D01*
X99511200Y-85350000D02*
X97525000Y-87336200D01*
X100000000Y-85350000D02*
X99511200Y-85350000D01*
X92049998Y-95000000D02*
X96033400Y-95000000D01*
X97525000Y-93508400D02*
X97525000Y-90000000D01*
X96033400Y-95000000D02*
X97525000Y-93508400D01*
D14*
X117093851Y-75500840D02*
X117665081Y-75673305D01*
X118191935Y-75953439D01*
X118654341Y-76330568D01*
X119034690Y-76790331D01*
X119318493Y-77315215D01*
X119494941Y-77885225D01*
X119559496Y-78499420D01*
X119559500Y-78500670D01*
X119559501Y-121478443D01*
X119499159Y-122093853D01*
X119326695Y-122665081D01*
X119046564Y-123191930D01*
X118669434Y-123654339D01*
X118209669Y-124034690D01*
X117684788Y-124318492D01*
X117114775Y-124494941D01*
X116500580Y-124559496D01*
X116499330Y-124559500D01*
X83521547Y-124559500D01*
X82906147Y-124499159D01*
X82334919Y-124326695D01*
X81808070Y-124046564D01*
X81345661Y-123669434D01*
X80965310Y-123209669D01*
X80681508Y-122684788D01*
X80505059Y-122114775D01*
X80440504Y-121500580D01*
X80440500Y-121499330D01*
X80440500Y-121311537D01*
X81586500Y-121311537D01*
X81586500Y-121688463D01*
X81660034Y-122058147D01*
X81804278Y-122406382D01*
X82013687Y-122719785D01*
X82280215Y-122986313D01*
X82593618Y-123195722D01*
X82941853Y-123339966D01*
X83311537Y-123413500D01*
X83688463Y-123413500D01*
X84058147Y-123339966D01*
X84406382Y-123195722D01*
X84719785Y-122986313D01*
X84986313Y-122719785D01*
X85195722Y-122406382D01*
X85339966Y-122058147D01*
X85413500Y-121688463D01*
X85413500Y-121311537D01*
X114586500Y-121311537D01*
X114586500Y-121688463D01*
X114660034Y-122058147D01*
X114804278Y-122406382D01*
X115013687Y-122719785D01*
X115280215Y-122986313D01*
X115593618Y-123195722D01*
X115941853Y-123339966D01*
X116311537Y-123413500D01*
X116688463Y-123413500D01*
X117058147Y-123339966D01*
X117406382Y-123195722D01*
X117719785Y-122986313D01*
X117986313Y-122719785D01*
X118195722Y-122406382D01*
X118339966Y-122058147D01*
X118413500Y-121688463D01*
X118413500Y-121311537D01*
X118339966Y-120941853D01*
X118195722Y-120593618D01*
X117986313Y-120280215D01*
X117719785Y-120013687D01*
X117406382Y-119804278D01*
X117058147Y-119660034D01*
X116688463Y-119586500D01*
X116311537Y-119586500D01*
X115941853Y-119660034D01*
X115593618Y-119804278D01*
X115280215Y-120013687D01*
X115013687Y-120280215D01*
X114804278Y-120593618D01*
X114660034Y-120941853D01*
X114586500Y-121311537D01*
X85413500Y-121311537D01*
X85339966Y-120941853D01*
X85195722Y-120593618D01*
X84986313Y-120280215D01*
X84719785Y-120013687D01*
X84406382Y-119804278D01*
X84058147Y-119660034D01*
X83688463Y-119586500D01*
X83311537Y-119586500D01*
X82941853Y-119660034D01*
X82593618Y-119804278D01*
X82280215Y-120013687D01*
X82013687Y-120280215D01*
X81804278Y-120593618D01*
X81660034Y-120941853D01*
X81586500Y-121311537D01*
X80440500Y-121311537D01*
X80440500Y-116150000D01*
X97684983Y-116150000D01*
X97691036Y-116211457D01*
X97708962Y-116270552D01*
X97738073Y-116325014D01*
X97777249Y-116372751D01*
X97824986Y-116411927D01*
X97879448Y-116441038D01*
X97938543Y-116458964D01*
X98000000Y-116465017D01*
X99731125Y-116463500D01*
X99809500Y-116385125D01*
X99809500Y-114840500D01*
X100190500Y-114840500D01*
X100190500Y-116385125D01*
X100268875Y-116463500D01*
X102000000Y-116465017D01*
X102061457Y-116458964D01*
X102120552Y-116441038D01*
X102175014Y-116411927D01*
X102222751Y-116372751D01*
X102261927Y-116325014D01*
X102291038Y-116270552D01*
X102308964Y-116211457D01*
X102315017Y-116150000D01*
X102313500Y-114918875D01*
X102235125Y-114840500D01*
X100190500Y-114840500D01*
X99809500Y-114840500D01*
X97764875Y-114840500D01*
X97686500Y-114918875D01*
X97684983Y-116150000D01*
X80440500Y-116150000D01*
X80440500Y-113150000D01*
X97684983Y-113150000D01*
X97686500Y-114381125D01*
X97764875Y-114459500D01*
X99809500Y-114459500D01*
X99809500Y-112914875D01*
X100190500Y-112914875D01*
X100190500Y-114459500D01*
X102235125Y-114459500D01*
X102313500Y-114381125D01*
X102315017Y-113150000D01*
X102308964Y-113088543D01*
X102291038Y-113029448D01*
X102261927Y-112974986D01*
X102222751Y-112927249D01*
X102175014Y-112888073D01*
X102120552Y-112858962D01*
X102061457Y-112841036D01*
X102000000Y-112834983D01*
X100268875Y-112836500D01*
X100190500Y-112914875D01*
X99809500Y-112914875D01*
X99731125Y-112836500D01*
X98000000Y-112834983D01*
X97938543Y-112841036D01*
X97879448Y-112858962D01*
X97824986Y-112888073D01*
X97777249Y-112927249D01*
X97738073Y-112974986D01*
X97708962Y-113029448D01*
X97691036Y-113088543D01*
X97684983Y-113150000D01*
X80440500Y-113150000D01*
X80440500Y-103936340D01*
X101731200Y-103936340D01*
X101731200Y-104095660D01*
X101762282Y-104251918D01*
X101823251Y-104399110D01*
X101911764Y-104531580D01*
X102024420Y-104644236D01*
X102156890Y-104732749D01*
X102304082Y-104793718D01*
X102460340Y-104824800D01*
X102619660Y-104824800D01*
X102775918Y-104793718D01*
X102923110Y-104732749D01*
X103055580Y-104644236D01*
X103168236Y-104531580D01*
X103256749Y-104399110D01*
X103317718Y-104251918D01*
X103348800Y-104095660D01*
X103348800Y-103936340D01*
X103317718Y-103780082D01*
X103256749Y-103632890D01*
X103168236Y-103500420D01*
X103055580Y-103387764D01*
X102923110Y-103299251D01*
X102775918Y-103238282D01*
X102619660Y-103207200D01*
X102460340Y-103207200D01*
X102304082Y-103238282D01*
X102156890Y-103299251D01*
X102024420Y-103387764D01*
X101911764Y-103500420D01*
X101823251Y-103632890D01*
X101762282Y-103780082D01*
X101731200Y-103936340D01*
X80440500Y-103936340D01*
X80440500Y-102920340D01*
X96651200Y-102920340D01*
X96651200Y-103079660D01*
X96682282Y-103235918D01*
X96743251Y-103383110D01*
X96831764Y-103515580D01*
X96944420Y-103628236D01*
X97076890Y-103716749D01*
X97224082Y-103777718D01*
X97380340Y-103808800D01*
X97539660Y-103808800D01*
X97695918Y-103777718D01*
X97843110Y-103716749D01*
X97975580Y-103628236D01*
X98088236Y-103515580D01*
X98176749Y-103383110D01*
X98237718Y-103235918D01*
X98268800Y-103079660D01*
X98268800Y-102920340D01*
X98237718Y-102764082D01*
X98176749Y-102616890D01*
X98088236Y-102484420D01*
X97975580Y-102371764D01*
X97843110Y-102283251D01*
X97695918Y-102222282D01*
X97539660Y-102191200D01*
X97380340Y-102191200D01*
X97224082Y-102222282D01*
X97076890Y-102283251D01*
X96944420Y-102371764D01*
X96831764Y-102484420D01*
X96743251Y-102616890D01*
X96682282Y-102764082D01*
X96651200Y-102920340D01*
X80440500Y-102920340D01*
X80440500Y-101904340D01*
X101731200Y-101904340D01*
X101731200Y-102063660D01*
X101762282Y-102219918D01*
X101823251Y-102367110D01*
X101911764Y-102499580D01*
X102024420Y-102612236D01*
X102156890Y-102700749D01*
X102304082Y-102761718D01*
X102460340Y-102792800D01*
X102619660Y-102792800D01*
X102775918Y-102761718D01*
X102923110Y-102700749D01*
X103055580Y-102612236D01*
X103168236Y-102499580D01*
X103256749Y-102367110D01*
X103317718Y-102219918D01*
X103348800Y-102063660D01*
X103348800Y-101904340D01*
X103317718Y-101748082D01*
X103256749Y-101600890D01*
X103168236Y-101468420D01*
X103055580Y-101355764D01*
X102923110Y-101267251D01*
X102775918Y-101206282D01*
X102619660Y-101175200D01*
X102460340Y-101175200D01*
X102304082Y-101206282D01*
X102156890Y-101267251D01*
X102024420Y-101355764D01*
X101911764Y-101468420D01*
X101823251Y-101600890D01*
X101762282Y-101748082D01*
X101731200Y-101904340D01*
X80440500Y-101904340D01*
X80440500Y-94929726D01*
X91336498Y-94929726D01*
X91336498Y-95070274D01*
X91363918Y-95208120D01*
X91417703Y-95337969D01*
X91495787Y-95454830D01*
X91595168Y-95554211D01*
X91712029Y-95632295D01*
X91841878Y-95686080D01*
X91979724Y-95713500D01*
X92120272Y-95713500D01*
X92258118Y-95686080D01*
X92387967Y-95632295D01*
X92415066Y-95614188D01*
X92438740Y-95601881D01*
X92452550Y-95594254D01*
X92512276Y-95559281D01*
X92520394Y-95554361D01*
X92572943Y-95521415D01*
X92616549Y-95494122D01*
X92648680Y-95475738D01*
X92673210Y-95464130D01*
X92696853Y-95455830D01*
X92728022Y-95448689D01*
X92774240Y-95443040D01*
X92845590Y-95440500D01*
X96011771Y-95440500D01*
X96033400Y-95442630D01*
X96055029Y-95440500D01*
X96055036Y-95440500D01*
X96119753Y-95434126D01*
X96202788Y-95408938D01*
X96279313Y-95368034D01*
X96346387Y-95312987D01*
X96360182Y-95296178D01*
X97821185Y-93835176D01*
X97837987Y-93821387D01*
X97893034Y-93754313D01*
X97933938Y-93677788D01*
X97959126Y-93594753D01*
X97965500Y-93530036D01*
X97965500Y-93530029D01*
X97967630Y-93508400D01*
X97965500Y-93486771D01*
X97965500Y-90795592D01*
X97968040Y-90724242D01*
X97973689Y-90678024D01*
X97980830Y-90646855D01*
X97989130Y-90623212D01*
X98000738Y-90598682D01*
X98019122Y-90566551D01*
X98046415Y-90522945D01*
X98079361Y-90470396D01*
X98084281Y-90462278D01*
X98119254Y-90402552D01*
X98126881Y-90388742D01*
X98139188Y-90365068D01*
X98157295Y-90337969D01*
X98211080Y-90208120D01*
X98238500Y-90070274D01*
X98238500Y-89929726D01*
X98211080Y-89791880D01*
X98157295Y-89662031D01*
X98139189Y-89634934D01*
X98126882Y-89611259D01*
X98119254Y-89597447D01*
X98084281Y-89537721D01*
X98079361Y-89529603D01*
X98046415Y-89477054D01*
X98019122Y-89433448D01*
X98000738Y-89401317D01*
X97989130Y-89376787D01*
X97980830Y-89353144D01*
X97973689Y-89321975D01*
X97968040Y-89275757D01*
X97965500Y-89204408D01*
X97965500Y-87518910D01*
X98186733Y-87323057D01*
X98372458Y-87203140D01*
X98465427Y-87165016D01*
X99642258Y-87165016D01*
X99835415Y-87171811D01*
X99863157Y-87171559D01*
X99985664Y-87165016D01*
X102000000Y-87165016D01*
X102061457Y-87158963D01*
X102120551Y-87141037D01*
X102175014Y-87111926D01*
X102222750Y-87072750D01*
X102261926Y-87025014D01*
X102291037Y-86970551D01*
X102308963Y-86911457D01*
X102315016Y-86850000D01*
X102315016Y-83850000D01*
X102308963Y-83788543D01*
X102291037Y-83729449D01*
X102261926Y-83674986D01*
X102222750Y-83627250D01*
X102175014Y-83588074D01*
X102120551Y-83558963D01*
X102061457Y-83541037D01*
X102000000Y-83534984D01*
X98000000Y-83534984D01*
X97938543Y-83541037D01*
X97879449Y-83558963D01*
X97824986Y-83588074D01*
X97777250Y-83627250D01*
X97738074Y-83674986D01*
X97708963Y-83729449D01*
X97691037Y-83788543D01*
X97684984Y-83850000D01*
X97684984Y-86480268D01*
X97579232Y-86632278D01*
X97341211Y-86897029D01*
X97228822Y-87009418D01*
X97212013Y-87023213D01*
X97156966Y-87090288D01*
X97116062Y-87166813D01*
X97090874Y-87249848D01*
X97084500Y-87314565D01*
X97084500Y-87314571D01*
X97082370Y-87336200D01*
X97084500Y-87357829D01*
X97084501Y-89204411D01*
X97081960Y-89275745D01*
X97076310Y-89321975D01*
X97069169Y-89353144D01*
X97060869Y-89376787D01*
X97049261Y-89401317D01*
X97030877Y-89433448D01*
X97003584Y-89477054D01*
X96970638Y-89529603D01*
X96965718Y-89537721D01*
X96930745Y-89597447D01*
X96923115Y-89611262D01*
X96910806Y-89634941D01*
X96892705Y-89662031D01*
X96838920Y-89791880D01*
X96811500Y-89929726D01*
X96811500Y-90070274D01*
X96838920Y-90208120D01*
X96892705Y-90337969D01*
X96910807Y-90365061D01*
X96923116Y-90388739D01*
X96930745Y-90402552D01*
X96965718Y-90462278D01*
X96970638Y-90470396D01*
X97003584Y-90522945D01*
X97030877Y-90566551D01*
X97049261Y-90598682D01*
X97060869Y-90623212D01*
X97069169Y-90646855D01*
X97076310Y-90678024D01*
X97081960Y-90724254D01*
X97084501Y-90795591D01*
X97084500Y-93325939D01*
X95850940Y-94559500D01*
X92845568Y-94559500D01*
X92774252Y-94556960D01*
X92728022Y-94551310D01*
X92696853Y-94544169D01*
X92673210Y-94535869D01*
X92648680Y-94524261D01*
X92616549Y-94505877D01*
X92572943Y-94478584D01*
X92520394Y-94445638D01*
X92512276Y-94440718D01*
X92452550Y-94405745D01*
X92438737Y-94398116D01*
X92415059Y-94385807D01*
X92387967Y-94367705D01*
X92258118Y-94313920D01*
X92120272Y-94286500D01*
X91979724Y-94286500D01*
X91841878Y-94313920D01*
X91712029Y-94367705D01*
X91595168Y-94445789D01*
X91495787Y-94545170D01*
X91417703Y-94662031D01*
X91363918Y-94791880D01*
X91336498Y-94929726D01*
X80440500Y-94929726D01*
X80440500Y-78521547D01*
X80461091Y-78311537D01*
X81586500Y-78311537D01*
X81586500Y-78688463D01*
X81660034Y-79058147D01*
X81804278Y-79406382D01*
X82013687Y-79719785D01*
X82280215Y-79986313D01*
X82593618Y-80195722D01*
X82941853Y-80339966D01*
X83311537Y-80413500D01*
X83688463Y-80413500D01*
X84058147Y-80339966D01*
X84406382Y-80195722D01*
X84719785Y-79986313D01*
X84986313Y-79719785D01*
X85195722Y-79406382D01*
X85339966Y-79058147D01*
X85413500Y-78688463D01*
X85413500Y-78311537D01*
X114586500Y-78311537D01*
X114586500Y-78688463D01*
X114660034Y-79058147D01*
X114804278Y-79406382D01*
X115013687Y-79719785D01*
X115280215Y-79986313D01*
X115593618Y-80195722D01*
X115941853Y-80339966D01*
X116311537Y-80413500D01*
X116688463Y-80413500D01*
X117058147Y-80339966D01*
X117406382Y-80195722D01*
X117719785Y-79986313D01*
X117986313Y-79719785D01*
X118195722Y-79406382D01*
X118339966Y-79058147D01*
X118413500Y-78688463D01*
X118413500Y-78311537D01*
X118339966Y-77941853D01*
X118195722Y-77593618D01*
X117986313Y-77280215D01*
X117719785Y-77013687D01*
X117406382Y-76804278D01*
X117058147Y-76660034D01*
X116688463Y-76586500D01*
X116311537Y-76586500D01*
X115941853Y-76660034D01*
X115593618Y-76804278D01*
X115280215Y-77013687D01*
X115013687Y-77280215D01*
X114804278Y-77593618D01*
X114660034Y-77941853D01*
X114586500Y-78311537D01*
X85413500Y-78311537D01*
X85339966Y-77941853D01*
X85195722Y-77593618D01*
X84986313Y-77280215D01*
X84719785Y-77013687D01*
X84406382Y-76804278D01*
X84058147Y-76660034D01*
X83688463Y-76586500D01*
X83311537Y-76586500D01*
X82941853Y-76660034D01*
X82593618Y-76804278D01*
X82280215Y-77013687D01*
X82013687Y-77280215D01*
X81804278Y-77593618D01*
X81660034Y-77941853D01*
X81586500Y-78311537D01*
X80461091Y-78311537D01*
X80500840Y-77906149D01*
X80673305Y-77334919D01*
X80953439Y-76808065D01*
X81330568Y-76345659D01*
X81790331Y-75965310D01*
X82315215Y-75681507D01*
X82885225Y-75505059D01*
X83499420Y-75440504D01*
X83500670Y-75440500D01*
X116478453Y-75440500D01*
X117093851Y-75500840D01*
G04 #@! TA.AperFunction,Conductor*
D15*
G36*
X117093851Y-75500840D02*
G01*
X117665081Y-75673305D01*
X118191935Y-75953439D01*
X118654341Y-76330568D01*
X119034690Y-76790331D01*
X119318493Y-77315215D01*
X119494941Y-77885225D01*
X119559496Y-78499420D01*
X119559500Y-78500670D01*
X119559501Y-121478443D01*
X119499159Y-122093853D01*
X119326695Y-122665081D01*
X119046564Y-123191930D01*
X118669434Y-123654339D01*
X118209669Y-124034690D01*
X117684788Y-124318492D01*
X117114775Y-124494941D01*
X116500580Y-124559496D01*
X116499330Y-124559500D01*
X83521547Y-124559500D01*
X82906147Y-124499159D01*
X82334919Y-124326695D01*
X81808070Y-124046564D01*
X81345661Y-123669434D01*
X80965310Y-123209669D01*
X80681508Y-122684788D01*
X80505059Y-122114775D01*
X80440504Y-121500580D01*
X80440500Y-121499330D01*
X80440500Y-121311537D01*
X81586500Y-121311537D01*
X81586500Y-121688463D01*
X81660034Y-122058147D01*
X81804278Y-122406382D01*
X82013687Y-122719785D01*
X82280215Y-122986313D01*
X82593618Y-123195722D01*
X82941853Y-123339966D01*
X83311537Y-123413500D01*
X83688463Y-123413500D01*
X84058147Y-123339966D01*
X84406382Y-123195722D01*
X84719785Y-122986313D01*
X84986313Y-122719785D01*
X85195722Y-122406382D01*
X85339966Y-122058147D01*
X85413500Y-121688463D01*
X85413500Y-121311537D01*
X114586500Y-121311537D01*
X114586500Y-121688463D01*
X114660034Y-122058147D01*
X114804278Y-122406382D01*
X115013687Y-122719785D01*
X115280215Y-122986313D01*
X115593618Y-123195722D01*
X115941853Y-123339966D01*
X116311537Y-123413500D01*
X116688463Y-123413500D01*
X117058147Y-123339966D01*
X117406382Y-123195722D01*
X117719785Y-122986313D01*
X117986313Y-122719785D01*
X118195722Y-122406382D01*
X118339966Y-122058147D01*
X118413500Y-121688463D01*
X118413500Y-121311537D01*
X118339966Y-120941853D01*
X118195722Y-120593618D01*
X117986313Y-120280215D01*
X117719785Y-120013687D01*
X117406382Y-119804278D01*
X117058147Y-119660034D01*
X116688463Y-119586500D01*
X116311537Y-119586500D01*
X115941853Y-119660034D01*
X115593618Y-119804278D01*
X115280215Y-120013687D01*
X115013687Y-120280215D01*
X114804278Y-120593618D01*
X114660034Y-120941853D01*
X114586500Y-121311537D01*
X85413500Y-121311537D01*
X85339966Y-120941853D01*
X85195722Y-120593618D01*
X84986313Y-120280215D01*
X84719785Y-120013687D01*
X84406382Y-119804278D01*
X84058147Y-119660034D01*
X83688463Y-119586500D01*
X83311537Y-119586500D01*
X82941853Y-119660034D01*
X82593618Y-119804278D01*
X82280215Y-120013687D01*
X82013687Y-120280215D01*
X81804278Y-120593618D01*
X81660034Y-120941853D01*
X81586500Y-121311537D01*
X80440500Y-121311537D01*
X80440500Y-116150000D01*
X97684983Y-116150000D01*
X97691036Y-116211457D01*
X97708962Y-116270552D01*
X97738073Y-116325014D01*
X97777249Y-116372751D01*
X97824986Y-116411927D01*
X97879448Y-116441038D01*
X97938543Y-116458964D01*
X98000000Y-116465017D01*
X99731125Y-116463500D01*
X99809500Y-116385125D01*
X99809500Y-114840500D01*
X100190500Y-114840500D01*
X100190500Y-116385125D01*
X100268875Y-116463500D01*
X102000000Y-116465017D01*
X102061457Y-116458964D01*
X102120552Y-116441038D01*
X102175014Y-116411927D01*
X102222751Y-116372751D01*
X102261927Y-116325014D01*
X102291038Y-116270552D01*
X102308964Y-116211457D01*
X102315017Y-116150000D01*
X102313500Y-114918875D01*
X102235125Y-114840500D01*
X100190500Y-114840500D01*
X99809500Y-114840500D01*
X97764875Y-114840500D01*
X97686500Y-114918875D01*
X97684983Y-116150000D01*
X80440500Y-116150000D01*
X80440500Y-113150000D01*
X97684983Y-113150000D01*
X97686500Y-114381125D01*
X97764875Y-114459500D01*
X99809500Y-114459500D01*
X99809500Y-112914875D01*
X100190500Y-112914875D01*
X100190500Y-114459500D01*
X102235125Y-114459500D01*
X102313500Y-114381125D01*
X102315017Y-113150000D01*
X102308964Y-113088543D01*
X102291038Y-113029448D01*
X102261927Y-112974986D01*
X102222751Y-112927249D01*
X102175014Y-112888073D01*
X102120552Y-112858962D01*
X102061457Y-112841036D01*
X102000000Y-112834983D01*
X100268875Y-112836500D01*
X100190500Y-112914875D01*
X99809500Y-112914875D01*
X99731125Y-112836500D01*
X98000000Y-112834983D01*
X97938543Y-112841036D01*
X97879448Y-112858962D01*
X97824986Y-112888073D01*
X97777249Y-112927249D01*
X97738073Y-112974986D01*
X97708962Y-113029448D01*
X97691036Y-113088543D01*
X97684983Y-113150000D01*
X80440500Y-113150000D01*
X80440500Y-103936340D01*
X101731200Y-103936340D01*
X101731200Y-104095660D01*
X101762282Y-104251918D01*
X101823251Y-104399110D01*
X101911764Y-104531580D01*
X102024420Y-104644236D01*
X102156890Y-104732749D01*
X102304082Y-104793718D01*
X102460340Y-104824800D01*
X102619660Y-104824800D01*
X102775918Y-104793718D01*
X102923110Y-104732749D01*
X103055580Y-104644236D01*
X103168236Y-104531580D01*
X103256749Y-104399110D01*
X103317718Y-104251918D01*
X103348800Y-104095660D01*
X103348800Y-103936340D01*
X103317718Y-103780082D01*
X103256749Y-103632890D01*
X103168236Y-103500420D01*
X103055580Y-103387764D01*
X102923110Y-103299251D01*
X102775918Y-103238282D01*
X102619660Y-103207200D01*
X102460340Y-103207200D01*
X102304082Y-103238282D01*
X102156890Y-103299251D01*
X102024420Y-103387764D01*
X101911764Y-103500420D01*
X101823251Y-103632890D01*
X101762282Y-103780082D01*
X101731200Y-103936340D01*
X80440500Y-103936340D01*
X80440500Y-102920340D01*
X96651200Y-102920340D01*
X96651200Y-103079660D01*
X96682282Y-103235918D01*
X96743251Y-103383110D01*
X96831764Y-103515580D01*
X96944420Y-103628236D01*
X97076890Y-103716749D01*
X97224082Y-103777718D01*
X97380340Y-103808800D01*
X97539660Y-103808800D01*
X97695918Y-103777718D01*
X97843110Y-103716749D01*
X97975580Y-103628236D01*
X98088236Y-103515580D01*
X98176749Y-103383110D01*
X98237718Y-103235918D01*
X98268800Y-103079660D01*
X98268800Y-102920340D01*
X98237718Y-102764082D01*
X98176749Y-102616890D01*
X98088236Y-102484420D01*
X97975580Y-102371764D01*
X97843110Y-102283251D01*
X97695918Y-102222282D01*
X97539660Y-102191200D01*
X97380340Y-102191200D01*
X97224082Y-102222282D01*
X97076890Y-102283251D01*
X96944420Y-102371764D01*
X96831764Y-102484420D01*
X96743251Y-102616890D01*
X96682282Y-102764082D01*
X96651200Y-102920340D01*
X80440500Y-102920340D01*
X80440500Y-101904340D01*
X101731200Y-101904340D01*
X101731200Y-102063660D01*
X101762282Y-102219918D01*
X101823251Y-102367110D01*
X101911764Y-102499580D01*
X102024420Y-102612236D01*
X102156890Y-102700749D01*
X102304082Y-102761718D01*
X102460340Y-102792800D01*
X102619660Y-102792800D01*
X102775918Y-102761718D01*
X102923110Y-102700749D01*
X103055580Y-102612236D01*
X103168236Y-102499580D01*
X103256749Y-102367110D01*
X103317718Y-102219918D01*
X103348800Y-102063660D01*
X103348800Y-101904340D01*
X103317718Y-101748082D01*
X103256749Y-101600890D01*
X103168236Y-101468420D01*
X103055580Y-101355764D01*
X102923110Y-101267251D01*
X102775918Y-101206282D01*
X102619660Y-101175200D01*
X102460340Y-101175200D01*
X102304082Y-101206282D01*
X102156890Y-101267251D01*
X102024420Y-101355764D01*
X101911764Y-101468420D01*
X101823251Y-101600890D01*
X101762282Y-101748082D01*
X101731200Y-101904340D01*
X80440500Y-101904340D01*
X80440500Y-94929726D01*
X91336498Y-94929726D01*
X91336498Y-95070274D01*
X91363918Y-95208120D01*
X91417703Y-95337969D01*
X91495787Y-95454830D01*
X91595168Y-95554211D01*
X91712029Y-95632295D01*
X91841878Y-95686080D01*
X91979724Y-95713500D01*
X92120272Y-95713500D01*
X92258118Y-95686080D01*
X92387967Y-95632295D01*
X92415066Y-95614188D01*
X92438740Y-95601881D01*
X92452550Y-95594254D01*
X92512276Y-95559281D01*
X92520394Y-95554361D01*
X92572943Y-95521415D01*
X92616549Y-95494122D01*
X92648680Y-95475738D01*
X92673210Y-95464130D01*
X92696853Y-95455830D01*
X92728022Y-95448689D01*
X92774240Y-95443040D01*
X92845590Y-95440500D01*
X96011771Y-95440500D01*
X96033400Y-95442630D01*
X96055029Y-95440500D01*
X96055036Y-95440500D01*
X96119753Y-95434126D01*
X96202788Y-95408938D01*
X96279313Y-95368034D01*
X96346387Y-95312987D01*
X96360182Y-95296178D01*
X97821185Y-93835176D01*
X97837987Y-93821387D01*
X97893034Y-93754313D01*
X97933938Y-93677788D01*
X97959126Y-93594753D01*
X97965500Y-93530036D01*
X97965500Y-93530029D01*
X97967630Y-93508400D01*
X97965500Y-93486771D01*
X97965500Y-90795592D01*
X97968040Y-90724242D01*
X97973689Y-90678024D01*
X97980830Y-90646855D01*
X97989130Y-90623212D01*
X98000738Y-90598682D01*
X98019122Y-90566551D01*
X98046415Y-90522945D01*
X98079361Y-90470396D01*
X98084281Y-90462278D01*
X98119254Y-90402552D01*
X98126881Y-90388742D01*
X98139188Y-90365068D01*
X98157295Y-90337969D01*
X98211080Y-90208120D01*
X98238500Y-90070274D01*
X98238500Y-89929726D01*
X98211080Y-89791880D01*
X98157295Y-89662031D01*
X98139189Y-89634934D01*
X98126882Y-89611259D01*
X98119254Y-89597447D01*
X98084281Y-89537721D01*
X98079361Y-89529603D01*
X98046415Y-89477054D01*
X98019122Y-89433448D01*
X98000738Y-89401317D01*
X97989130Y-89376787D01*
X97980830Y-89353144D01*
X97973689Y-89321975D01*
X97968040Y-89275757D01*
X97965500Y-89204408D01*
X97965500Y-87518910D01*
X98186733Y-87323057D01*
X98372458Y-87203140D01*
X98465427Y-87165016D01*
X99642258Y-87165016D01*
X99835415Y-87171811D01*
X99863157Y-87171559D01*
X99985664Y-87165016D01*
X102000000Y-87165016D01*
X102061457Y-87158963D01*
X102120551Y-87141037D01*
X102175014Y-87111926D01*
X102222750Y-87072750D01*
X102261926Y-87025014D01*
X102291037Y-86970551D01*
X102308963Y-86911457D01*
X102315016Y-86850000D01*
X102315016Y-83850000D01*
X102308963Y-83788543D01*
X102291037Y-83729449D01*
X102261926Y-83674986D01*
X102222750Y-83627250D01*
X102175014Y-83588074D01*
X102120551Y-83558963D01*
X102061457Y-83541037D01*
X102000000Y-83534984D01*
X98000000Y-83534984D01*
X97938543Y-83541037D01*
X97879449Y-83558963D01*
X97824986Y-83588074D01*
X97777250Y-83627250D01*
X97738074Y-83674986D01*
X97708963Y-83729449D01*
X97691037Y-83788543D01*
X97684984Y-83850000D01*
X97684984Y-86480268D01*
X97579232Y-86632278D01*
X97341211Y-86897029D01*
X97228822Y-87009418D01*
X97212013Y-87023213D01*
X97156966Y-87090288D01*
X97116062Y-87166813D01*
X97090874Y-87249848D01*
X97084500Y-87314565D01*
X97084500Y-87314571D01*
X97082370Y-87336200D01*
X97084500Y-87357829D01*
X97084501Y-89204411D01*
X97081960Y-89275745D01*
X97076310Y-89321975D01*
X97069169Y-89353144D01*
X97060869Y-89376787D01*
X97049261Y-89401317D01*
X97030877Y-89433448D01*
X97003584Y-89477054D01*
X96970638Y-89529603D01*
X96965718Y-89537721D01*
X96930745Y-89597447D01*
X96923115Y-89611262D01*
X96910806Y-89634941D01*
X96892705Y-89662031D01*
X96838920Y-89791880D01*
X96811500Y-89929726D01*
X96811500Y-90070274D01*
X96838920Y-90208120D01*
X96892705Y-90337969D01*
X96910807Y-90365061D01*
X96923116Y-90388739D01*
X96930745Y-90402552D01*
X96965718Y-90462278D01*
X96970638Y-90470396D01*
X97003584Y-90522945D01*
X97030877Y-90566551D01*
X97049261Y-90598682D01*
X97060869Y-90623212D01*
X97069169Y-90646855D01*
X97076310Y-90678024D01*
X97081960Y-90724254D01*
X97084501Y-90795591D01*
X97084500Y-93325939D01*
X95850940Y-94559500D01*
X92845568Y-94559500D01*
X92774252Y-94556960D01*
X92728022Y-94551310D01*
X92696853Y-94544169D01*
X92673210Y-94535869D01*
X92648680Y-94524261D01*
X92616549Y-94505877D01*
X92572943Y-94478584D01*
X92520394Y-94445638D01*
X92512276Y-94440718D01*
X92452550Y-94405745D01*
X92438737Y-94398116D01*
X92415059Y-94385807D01*
X92387967Y-94367705D01*
X92258118Y-94313920D01*
X92120272Y-94286500D01*
X91979724Y-94286500D01*
X91841878Y-94313920D01*
X91712029Y-94367705D01*
X91595168Y-94445789D01*
X91495787Y-94545170D01*
X91417703Y-94662031D01*
X91363918Y-94791880D01*
X91336498Y-94929726D01*
X80440500Y-94929726D01*
X80440500Y-78521547D01*
X80461091Y-78311537D01*
X81586500Y-78311537D01*
X81586500Y-78688463D01*
X81660034Y-79058147D01*
X81804278Y-79406382D01*
X82013687Y-79719785D01*
X82280215Y-79986313D01*
X82593618Y-80195722D01*
X82941853Y-80339966D01*
X83311537Y-80413500D01*
X83688463Y-80413500D01*
X84058147Y-80339966D01*
X84406382Y-80195722D01*
X84719785Y-79986313D01*
X84986313Y-79719785D01*
X85195722Y-79406382D01*
X85339966Y-79058147D01*
X85413500Y-78688463D01*
X85413500Y-78311537D01*
X114586500Y-78311537D01*
X114586500Y-78688463D01*
X114660034Y-79058147D01*
X114804278Y-79406382D01*
X115013687Y-79719785D01*
X115280215Y-79986313D01*
X115593618Y-80195722D01*
X115941853Y-80339966D01*
X116311537Y-80413500D01*
X116688463Y-80413500D01*
X117058147Y-80339966D01*
X117406382Y-80195722D01*
X117719785Y-79986313D01*
X117986313Y-79719785D01*
X118195722Y-79406382D01*
X118339966Y-79058147D01*
X118413500Y-78688463D01*
X118413500Y-78311537D01*
X118339966Y-77941853D01*
X118195722Y-77593618D01*
X117986313Y-77280215D01*
X117719785Y-77013687D01*
X117406382Y-76804278D01*
X117058147Y-76660034D01*
X116688463Y-76586500D01*
X116311537Y-76586500D01*
X115941853Y-76660034D01*
X115593618Y-76804278D01*
X115280215Y-77013687D01*
X115013687Y-77280215D01*
X114804278Y-77593618D01*
X114660034Y-77941853D01*
X114586500Y-78311537D01*
X85413500Y-78311537D01*
X85339966Y-77941853D01*
X85195722Y-77593618D01*
X84986313Y-77280215D01*
X84719785Y-77013687D01*
X84406382Y-76804278D01*
X84058147Y-76660034D01*
X83688463Y-76586500D01*
X83311537Y-76586500D01*
X82941853Y-76660034D01*
X82593618Y-76804278D01*
X82280215Y-77013687D01*
X82013687Y-77280215D01*
X81804278Y-77593618D01*
X81660034Y-77941853D01*
X81586500Y-78311537D01*
X80461091Y-78311537D01*
X80500840Y-77906149D01*
X80673305Y-77334919D01*
X80953439Y-76808065D01*
X81330568Y-76345659D01*
X81790331Y-75965310D01*
X82315215Y-75681507D01*
X82885225Y-75505059D01*
X83499420Y-75440504D01*
X83500670Y-75440500D01*
X116478453Y-75440500D01*
X117093851Y-75500840D01*
G37*
G04 #@! TD.AperFunction*
D16*
X97642526Y-89300842D02*
X97642612Y-89301931D01*
X97651871Y-89377683D01*
X97652098Y-89378978D01*
X97666807Y-89443179D01*
X97667203Y-89444550D01*
X97686769Y-89500287D01*
X97687272Y-89501512D01*
X97711103Y-89551872D01*
X97711560Y-89552747D01*
X97739065Y-89600818D01*
X97739323Y-89601249D01*
X97769909Y-89650117D01*
X97769914Y-89650125D01*
X97802893Y-89702726D01*
X97837599Y-89761996D01*
X97869527Y-89823413D01*
X97525000Y-90181678D01*
X97180473Y-89823413D01*
X97212400Y-89761996D01*
X97247106Y-89702726D01*
X97280085Y-89650125D01*
X97280090Y-89650117D01*
X97310676Y-89601249D01*
X97310934Y-89600818D01*
X97338439Y-89552747D01*
X97338896Y-89551872D01*
X97362727Y-89501512D01*
X97363230Y-89500287D01*
X97382796Y-89444550D01*
X97383192Y-89443179D01*
X97397901Y-89378978D01*
X97398128Y-89377683D01*
X97407387Y-89301931D01*
X97407473Y-89300842D01*
X97410256Y-89222700D01*
X97639744Y-89222700D01*
X97642526Y-89300842D01*
G04 #@! TA.AperFunction,Conductor*
D15*
G36*
X97642526Y-89300842D02*
G01*
X97642612Y-89301931D01*
X97651871Y-89377683D01*
X97652098Y-89378978D01*
X97666807Y-89443179D01*
X97667203Y-89444550D01*
X97686769Y-89500287D01*
X97687272Y-89501512D01*
X97711103Y-89551872D01*
X97711560Y-89552747D01*
X97739065Y-89600818D01*
X97739323Y-89601249D01*
X97769909Y-89650117D01*
X97769914Y-89650125D01*
X97802893Y-89702726D01*
X97837599Y-89761996D01*
X97869527Y-89823413D01*
X97525000Y-90181678D01*
X97180473Y-89823413D01*
X97212400Y-89761996D01*
X97247106Y-89702726D01*
X97280085Y-89650125D01*
X97280090Y-89650117D01*
X97310676Y-89601249D01*
X97310934Y-89600818D01*
X97338439Y-89552747D01*
X97338896Y-89551872D01*
X97362727Y-89501512D01*
X97363230Y-89500287D01*
X97382796Y-89444550D01*
X97383192Y-89443179D01*
X97397901Y-89378978D01*
X97398128Y-89377683D01*
X97407387Y-89301931D01*
X97407473Y-89300842D01*
X97410256Y-89222700D01*
X97639744Y-89222700D01*
X97642526Y-89300842D01*
G37*
G04 #@! TD.AperFunction*
D16*
X100622313Y-84965192D02*
X100143908Y-86829899D01*
X99846319Y-86845793D01*
X99571272Y-86836117D01*
X99320959Y-86812502D01*
X99089351Y-86787095D01*
X99088834Y-86787049D01*
X98869895Y-86772048D01*
X98868573Y-86772026D01*
X98656204Y-86779627D01*
X98654168Y-86779865D01*
X98442143Y-86822253D01*
X98439814Y-86822957D01*
X98221910Y-86912314D01*
X98219840Y-86913395D01*
X97989831Y-87061905D01*
X97988302Y-87063065D01*
X97748914Y-87274991D01*
X97586274Y-87112351D01*
X97834873Y-86835835D01*
X97835854Y-86834597D01*
X98018485Y-86572080D01*
X98019386Y-86570573D01*
X98144077Y-86324800D01*
X98144730Y-86323272D01*
X98227559Y-86088029D01*
X98227909Y-86086857D01*
X98284957Y-85855935D01*
X98285073Y-85855420D01*
X98332385Y-85622756D01*
X98385989Y-85382357D01*
X98461846Y-85128184D01*
X98576016Y-84853713D01*
X98740393Y-84560045D01*
X100622313Y-84965192D01*
G04 #@! TA.AperFunction,Conductor*
D15*
G36*
X100622313Y-84965192D02*
G01*
X100143908Y-86829899D01*
X99846319Y-86845793D01*
X99571272Y-86836117D01*
X99320959Y-86812502D01*
X99089351Y-86787095D01*
X99088834Y-86787049D01*
X98869895Y-86772048D01*
X98868573Y-86772026D01*
X98656204Y-86779627D01*
X98654168Y-86779865D01*
X98442143Y-86822253D01*
X98439814Y-86822957D01*
X98221910Y-86912314D01*
X98219840Y-86913395D01*
X97989831Y-87061905D01*
X97988302Y-87063065D01*
X97748914Y-87274991D01*
X97586274Y-87112351D01*
X97834873Y-86835835D01*
X97835854Y-86834597D01*
X98018485Y-86572080D01*
X98019386Y-86570573D01*
X98144077Y-86324800D01*
X98144730Y-86323272D01*
X98227559Y-86088029D01*
X98227909Y-86086857D01*
X98284957Y-85855935D01*
X98285073Y-85855420D01*
X98332385Y-85622756D01*
X98385989Y-85382357D01*
X98461846Y-85128184D01*
X98576016Y-84853713D01*
X98740393Y-84560045D01*
X100622313Y-84965192D01*
G37*
G04 #@! TD.AperFunction*
D16*
X92288001Y-94687400D02*
X92347271Y-94722106D01*
X92399872Y-94755085D01*
X92399880Y-94755090D01*
X92448748Y-94785676D01*
X92449179Y-94785934D01*
X92497250Y-94813439D01*
X92498125Y-94813896D01*
X92548485Y-94837727D01*
X92549710Y-94838230D01*
X92605447Y-94857796D01*
X92606818Y-94858192D01*
X92671019Y-94872901D01*
X92672314Y-94873128D01*
X92748066Y-94882387D01*
X92749155Y-94882473D01*
X92827298Y-94885256D01*
X92827298Y-95114744D01*
X92749155Y-95117526D01*
X92748066Y-95117612D01*
X92672314Y-95126871D01*
X92671019Y-95127098D01*
X92606818Y-95141807D01*
X92605447Y-95142203D01*
X92549710Y-95161769D01*
X92548485Y-95162272D01*
X92498125Y-95186103D01*
X92497250Y-95186560D01*
X92449179Y-95214065D01*
X92448748Y-95214323D01*
X92399880Y-95244909D01*
X92399872Y-95244914D01*
X92347271Y-95277893D01*
X92288001Y-95312599D01*
X92226585Y-95344527D01*
X91868320Y-95000000D01*
X92226585Y-94655473D01*
X92288001Y-94687400D01*
G04 #@! TA.AperFunction,Conductor*
D15*
G36*
X92288001Y-94687400D02*
G01*
X92347271Y-94722106D01*
X92399872Y-94755085D01*
X92399880Y-94755090D01*
X92448748Y-94785676D01*
X92449179Y-94785934D01*
X92497250Y-94813439D01*
X92498125Y-94813896D01*
X92548485Y-94837727D01*
X92549710Y-94838230D01*
X92605447Y-94857796D01*
X92606818Y-94858192D01*
X92671019Y-94872901D01*
X92672314Y-94873128D01*
X92748066Y-94882387D01*
X92749155Y-94882473D01*
X92827298Y-94885256D01*
X92827298Y-95114744D01*
X92749155Y-95117526D01*
X92748066Y-95117612D01*
X92672314Y-95126871D01*
X92671019Y-95127098D01*
X92606818Y-95141807D01*
X92605447Y-95142203D01*
X92549710Y-95161769D01*
X92548485Y-95162272D01*
X92498125Y-95186103D01*
X92497250Y-95186560D01*
X92449179Y-95214065D01*
X92448748Y-95214323D01*
X92399880Y-95244909D01*
X92399872Y-95244914D01*
X92347271Y-95277893D01*
X92288001Y-95312599D01*
X92226585Y-95344527D01*
X91868320Y-95000000D01*
X92226585Y-94655473D01*
X92288001Y-94687400D01*
G37*
G04 #@! TD.AperFunction*
D16*
X97869527Y-90176587D02*
X97837599Y-90238003D01*
X97802893Y-90297273D01*
X97769914Y-90349874D01*
X97769909Y-90349882D01*
X97739323Y-90398750D01*
X97739065Y-90399181D01*
X97711560Y-90447252D01*
X97711103Y-90448127D01*
X97687272Y-90498487D01*
X97686769Y-90499712D01*
X97667203Y-90555449D01*
X97666807Y-90556820D01*
X97652098Y-90621021D01*
X97651871Y-90622316D01*
X97642612Y-90698068D01*
X97642526Y-90699157D01*
X97639744Y-90777300D01*
X97410256Y-90777300D01*
X97407473Y-90699157D01*
X97407387Y-90698068D01*
X97398128Y-90622316D01*
X97397901Y-90621021D01*
X97383192Y-90556820D01*
X97382796Y-90555449D01*
X97363230Y-90499712D01*
X97362727Y-90498487D01*
X97338896Y-90448127D01*
X97338439Y-90447252D01*
X97310934Y-90399181D01*
X97310676Y-90398750D01*
X97280090Y-90349882D01*
X97280085Y-90349874D01*
X97247106Y-90297273D01*
X97212400Y-90238003D01*
X97180473Y-90176587D01*
X97525000Y-89818322D01*
X97869527Y-90176587D01*
G04 #@! TA.AperFunction,Conductor*
D15*
G36*
X97869527Y-90176587D02*
G01*
X97837599Y-90238003D01*
X97802893Y-90297273D01*
X97769914Y-90349874D01*
X97769909Y-90349882D01*
X97739323Y-90398750D01*
X97739065Y-90399181D01*
X97711560Y-90447252D01*
X97711103Y-90448127D01*
X97687272Y-90498487D01*
X97686769Y-90499712D01*
X97667203Y-90555449D01*
X97666807Y-90556820D01*
X97652098Y-90621021D01*
X97651871Y-90622316D01*
X97642612Y-90698068D01*
X97642526Y-90699157D01*
X97639744Y-90777300D01*
X97410256Y-90777300D01*
X97407473Y-90699157D01*
X97407387Y-90698068D01*
X97398128Y-90622316D01*
X97397901Y-90621021D01*
X97383192Y-90556820D01*
X97382796Y-90555449D01*
X97363230Y-90499712D01*
X97362727Y-90498487D01*
X97338896Y-90448127D01*
X97338439Y-90447252D01*
X97310934Y-90399181D01*
X97310676Y-90398750D01*
X97280090Y-90349882D01*
X97280085Y-90349874D01*
X97247106Y-90297273D01*
X97212400Y-90238003D01*
X97180473Y-90176587D01*
X97525000Y-89818322D01*
X97869527Y-90176587D01*
G37*
G04 #@! TD.AperFunction*
M02*
