M48
; DRILL file {KiCad (5.1.8)-1} date 05/24/21 17:48:57
; FORMAT={-:-/ absolute / inch / decimal}
; #@! TF.CreationDate,2021-05-24T17:48:57-05:00
; #@! TF.GenerationSoftware,Kicad,Pcbnew,(5.1.8)-1
FMAT,2
INCH
T1C0.0157
T2C0.0390
T3C0.1260
%
G90
G05
T1
X3.4646Y-3.7402
X3.5548Y-4.0179
X3.5548Y-3.4625
X3.624Y-3.5902
X3.624Y-3.7402
X3.791Y-4.1895
X3.791Y-3.2908
X3.8189Y-4.498
X3.8396Y-3.5433
X3.937Y-4.1339
X3.937Y-4.7736
X4.083Y-4.1895
X4.0837Y-3.291
X4.1142Y-3.5902
X4.3192Y-3.4625
X4.3192Y-4.0179
X4.4094Y-3.7402
T2
X3.837Y-4.0551
X4.037Y-4.0151
X4.037Y-4.0951
T3
X3.2874Y-3.0906
X4.5866Y-3.0906
X4.5866Y-4.7835
X3.2874Y-4.7835
T0
M30
