G04 #@! TF.GenerationSoftware,KiCad,Pcbnew,(5.1.8)-1*
G04 #@! TF.CreationDate,2021-05-24T17:48:50-05:00*
G04 #@! TF.ProjectId,PIC16_Ring_of_Fire_Game,50494331-365f-4526-996e-675f6f665f46,1A*
G04 #@! TF.SameCoordinates,Original*
G04 #@! TF.FileFunction,OtherDrawing,Comment*
%FSLAX46Y46*%
G04 Gerber Fmt 4.6, Leading zero omitted, Abs format (unit mm)*
G04 Created by KiCad (PCBNEW (5.1.8)-1) date 2021-05-24 17:48:50*
%MOMM*%
%LPD*%
G01*
G04 APERTURE LIST*
%ADD10C,0.150000*%
G04 #@! TA.AperFunction,Profile*
%ADD11C,0.254000*%
G04 #@! TD*
%ADD12C,0.100000*%
G04 APERTURE END LIST*
D10*
X96333333Y-65440114D02*
X96333333Y-66106780D01*
X96095238Y-65059161D02*
X95857142Y-65773447D01*
X96476190Y-65773447D01*
X97047619Y-65106780D02*
X97142857Y-65106780D01*
X97238095Y-65154400D01*
X97285714Y-65202019D01*
X97333333Y-65297257D01*
X97380952Y-65487733D01*
X97380952Y-65725828D01*
X97333333Y-65916304D01*
X97285714Y-66011542D01*
X97238095Y-66059161D01*
X97142857Y-66106780D01*
X97047619Y-66106780D01*
X96952380Y-66059161D01*
X96904761Y-66011542D01*
X96857142Y-65916304D01*
X96809523Y-65725828D01*
X96809523Y-65487733D01*
X96857142Y-65297257D01*
X96904761Y-65202019D01*
X96952380Y-65154400D01*
X97047619Y-65106780D01*
X97809523Y-66011542D02*
X97857142Y-66059161D01*
X97809523Y-66106780D01*
X97761904Y-66059161D01*
X97809523Y-66011542D01*
X97809523Y-66106780D01*
X98476190Y-65106780D02*
X98571428Y-65106780D01*
X98666666Y-65154400D01*
X98714285Y-65202019D01*
X98761904Y-65297257D01*
X98809523Y-65487733D01*
X98809523Y-65725828D01*
X98761904Y-65916304D01*
X98714285Y-66011542D01*
X98666666Y-66059161D01*
X98571428Y-66106780D01*
X98476190Y-66106780D01*
X98380952Y-66059161D01*
X98333333Y-66011542D01*
X98285714Y-65916304D01*
X98238095Y-65725828D01*
X98238095Y-65487733D01*
X98285714Y-65297257D01*
X98333333Y-65202019D01*
X98380952Y-65154400D01*
X98476190Y-65106780D01*
X99428571Y-65106780D02*
X99523809Y-65106780D01*
X99619047Y-65154400D01*
X99666666Y-65202019D01*
X99714285Y-65297257D01*
X99761904Y-65487733D01*
X99761904Y-65725828D01*
X99714285Y-65916304D01*
X99666666Y-66011542D01*
X99619047Y-66059161D01*
X99523809Y-66106780D01*
X99428571Y-66106780D01*
X99333333Y-66059161D01*
X99285714Y-66011542D01*
X99238095Y-65916304D01*
X99190476Y-65725828D01*
X99190476Y-65487733D01*
X99238095Y-65297257D01*
X99285714Y-65202019D01*
X99333333Y-65154400D01*
X99428571Y-65106780D01*
X100380952Y-65106780D02*
X100476190Y-65106780D01*
X100571428Y-65154400D01*
X100619047Y-65202019D01*
X100666666Y-65297257D01*
X100714285Y-65487733D01*
X100714285Y-65725828D01*
X100666666Y-65916304D01*
X100619047Y-66011542D01*
X100571428Y-66059161D01*
X100476190Y-66106780D01*
X100380952Y-66106780D01*
X100285714Y-66059161D01*
X100238095Y-66011542D01*
X100190476Y-65916304D01*
X100142857Y-65725828D01*
X100142857Y-65487733D01*
X100190476Y-65297257D01*
X100238095Y-65202019D01*
X100285714Y-65154400D01*
X100380952Y-65106780D01*
X101904761Y-66106780D02*
X101904761Y-65440114D01*
X101904761Y-65535352D02*
X101952380Y-65487733D01*
X102047619Y-65440114D01*
X102190476Y-65440114D01*
X102285714Y-65487733D01*
X102333333Y-65582971D01*
X102333333Y-66106780D01*
X102333333Y-65582971D02*
X102380952Y-65487733D01*
X102476190Y-65440114D01*
X102619047Y-65440114D01*
X102714285Y-65487733D01*
X102761904Y-65582971D01*
X102761904Y-66106780D01*
X103238095Y-66106780D02*
X103238095Y-65440114D01*
X103238095Y-65535352D02*
X103285714Y-65487733D01*
X103380952Y-65440114D01*
X103523809Y-65440114D01*
X103619047Y-65487733D01*
X103666666Y-65582971D01*
X103666666Y-66106780D01*
X103666666Y-65582971D02*
X103714285Y-65487733D01*
X103809523Y-65440114D01*
X103952380Y-65440114D01*
X104047619Y-65487733D01*
X104095238Y-65582971D01*
X104095238Y-66106780D01*
X80000000Y-66954400D02*
X120000000Y-66954400D01*
X80000000Y-78500000D02*
X80000000Y-66367979D01*
X120000000Y-78500000D02*
X120000000Y-66367979D01*
X120000000Y-66954400D02*
X118873496Y-67540821D01*
X120000000Y-66954400D02*
X118873496Y-66367979D01*
X80000000Y-66954400D02*
X81126504Y-67540821D01*
X80000000Y-66954400D02*
X81126504Y-66367979D01*
X130371619Y-96380952D02*
X130371619Y-95904761D01*
X129895428Y-95857142D01*
X129943047Y-95904761D01*
X129990666Y-96000000D01*
X129990666Y-96238095D01*
X129943047Y-96333333D01*
X129895428Y-96380952D01*
X129800190Y-96428571D01*
X129562095Y-96428571D01*
X129466857Y-96380952D01*
X129419238Y-96333333D01*
X129371619Y-96238095D01*
X129371619Y-96000000D01*
X129419238Y-95904761D01*
X129466857Y-95857142D01*
X130371619Y-97047619D02*
X130371619Y-97142857D01*
X130324000Y-97238095D01*
X130276380Y-97285714D01*
X130181142Y-97333333D01*
X129990666Y-97380952D01*
X129752571Y-97380952D01*
X129562095Y-97333333D01*
X129466857Y-97285714D01*
X129419238Y-97238095D01*
X129371619Y-97142857D01*
X129371619Y-97047619D01*
X129419238Y-96952380D01*
X129466857Y-96904761D01*
X129562095Y-96857142D01*
X129752571Y-96809523D01*
X129990666Y-96809523D01*
X130181142Y-96857142D01*
X130276380Y-96904761D01*
X130324000Y-96952380D01*
X130371619Y-97047619D01*
X129466857Y-97809523D02*
X129419238Y-97857142D01*
X129371619Y-97809523D01*
X129419238Y-97761904D01*
X129466857Y-97809523D01*
X129371619Y-97809523D01*
X130371619Y-98476190D02*
X130371619Y-98571428D01*
X130324000Y-98666666D01*
X130276380Y-98714285D01*
X130181142Y-98761904D01*
X129990666Y-98809523D01*
X129752571Y-98809523D01*
X129562095Y-98761904D01*
X129466857Y-98714285D01*
X129419238Y-98666666D01*
X129371619Y-98571428D01*
X129371619Y-98476190D01*
X129419238Y-98380952D01*
X129466857Y-98333333D01*
X129562095Y-98285714D01*
X129752571Y-98238095D01*
X129990666Y-98238095D01*
X130181142Y-98285714D01*
X130276380Y-98333333D01*
X130324000Y-98380952D01*
X130371619Y-98476190D01*
X130371619Y-99428571D02*
X130371619Y-99523809D01*
X130324000Y-99619047D01*
X130276380Y-99666666D01*
X130181142Y-99714285D01*
X129990666Y-99761904D01*
X129752571Y-99761904D01*
X129562095Y-99714285D01*
X129466857Y-99666666D01*
X129419238Y-99619047D01*
X129371619Y-99523809D01*
X129371619Y-99428571D01*
X129419238Y-99333333D01*
X129466857Y-99285714D01*
X129562095Y-99238095D01*
X129752571Y-99190476D01*
X129990666Y-99190476D01*
X130181142Y-99238095D01*
X130276380Y-99285714D01*
X130324000Y-99333333D01*
X130371619Y-99428571D01*
X130371619Y-100380952D02*
X130371619Y-100476190D01*
X130324000Y-100571428D01*
X130276380Y-100619047D01*
X130181142Y-100666666D01*
X129990666Y-100714285D01*
X129752571Y-100714285D01*
X129562095Y-100666666D01*
X129466857Y-100619047D01*
X129419238Y-100571428D01*
X129371619Y-100476190D01*
X129371619Y-100380952D01*
X129419238Y-100285714D01*
X129466857Y-100238095D01*
X129562095Y-100190476D01*
X129752571Y-100142857D01*
X129990666Y-100142857D01*
X130181142Y-100190476D01*
X130276380Y-100238095D01*
X130324000Y-100285714D01*
X130371619Y-100380952D01*
X129371619Y-101904761D02*
X130038285Y-101904761D01*
X129943047Y-101904761D02*
X129990666Y-101952380D01*
X130038285Y-102047619D01*
X130038285Y-102190476D01*
X129990666Y-102285714D01*
X129895428Y-102333333D01*
X129371619Y-102333333D01*
X129895428Y-102333333D02*
X129990666Y-102380952D01*
X130038285Y-102476190D01*
X130038285Y-102619047D01*
X129990666Y-102714285D01*
X129895428Y-102761904D01*
X129371619Y-102761904D01*
X129371619Y-103238095D02*
X130038285Y-103238095D01*
X129943047Y-103238095D02*
X129990666Y-103285714D01*
X130038285Y-103380952D01*
X130038285Y-103523809D01*
X129990666Y-103619047D01*
X129895428Y-103666666D01*
X129371619Y-103666666D01*
X129895428Y-103666666D02*
X129990666Y-103714285D01*
X130038285Y-103809523D01*
X130038285Y-103952380D01*
X129990666Y-104047619D01*
X129895428Y-104095238D01*
X129371619Y-104095238D01*
X128524000Y-75000000D02*
X128524000Y-125000000D01*
X116500000Y-75000000D02*
X129110421Y-75000000D01*
X116500000Y-125000000D02*
X129110421Y-125000000D01*
X128524000Y-125000000D02*
X127937579Y-123873496D01*
X128524000Y-125000000D02*
X129110421Y-123873496D01*
X128524000Y-75000000D02*
X127937579Y-76126504D01*
X128524000Y-75000000D02*
X129110421Y-76126504D01*
D11*
X83500000Y-125000000D02*
X116500000Y-125000000D01*
X120000000Y-121500000D02*
G75*
G02*
X116500000Y-125000000I-3500000J0D01*
G01*
X120000000Y-78500000D02*
X120000000Y-121500000D01*
X116500000Y-75000000D02*
G75*
G02*
X120000000Y-78500000I0J-3500000D01*
G01*
X83500000Y-75000000D02*
X116500000Y-75000000D01*
X80000000Y-78500000D02*
G75*
G02*
X83500000Y-75000000I3500000J0D01*
G01*
X83500000Y-125000000D02*
G75*
G02*
X80000000Y-121500000I0J3500000D01*
G01*
X80000000Y-78500000D02*
X80000000Y-121500000D01*
D12*
X100635000Y-103635000D02*
X101270000Y-103000000D01*
X100000000Y-103635000D02*
X101270000Y-102365000D01*
X99365000Y-103635000D02*
X100635000Y-102365000D01*
X98730000Y-103000000D02*
X99365000Y-102365000D01*
X98730000Y-103635000D02*
X100000000Y-102365000D01*
X98730000Y-102365000D02*
X101270000Y-102365000D01*
X101270000Y-102365000D02*
X101270000Y-103635000D01*
X101270000Y-103635000D02*
X98730000Y-103635000D01*
X98730000Y-103635000D02*
X98730000Y-102365000D01*
M02*
