G04 #@! TF.GenerationSoftware,KiCad,Pcbnew,(5.1.8)-1*
G04 #@! TF.CreationDate,2021-05-24T17:48:50-05:00*
G04 #@! TF.ProjectId,PIC16_Ring_of_Fire_Game,50494331-365f-4526-996e-675f6f665f46,1A*
G04 #@! TF.SameCoordinates,Original*
G04 #@! TF.FileFunction,Soldermask,Top*
G04 #@! TF.FilePolarity,Negative*
%FSLAX46Y46*%
G04 Gerber Fmt 4.6, Leading zero omitted, Abs format (unit mm)*
G04 Created by KiCad (PCBNEW (5.1.8)-1) date 2021-05-24 17:48:50*
%MOMM*%
%LPD*%
G01*
G04 APERTURE LIST*
G04 #@! TA.AperFunction,Profile*
%ADD10C,0.254000*%
G04 #@! TD*
%ADD11R,1.550000X1.300000*%
%ADD12C,0.787400*%
%ADD13C,0.990600*%
%ADD14C,3.200000*%
G04 APERTURE END LIST*
D10*
X83500000Y-125000000D02*
X116500000Y-125000000D01*
X120000000Y-121500000D02*
G75*
G02*
X116500000Y-125000000I-3500000J0D01*
G01*
X120000000Y-78500000D02*
X120000000Y-121500000D01*
X116500000Y-75000000D02*
G75*
G02*
X120000000Y-78500000I0J-3500000D01*
G01*
X83500000Y-75000000D02*
X116500000Y-75000000D01*
X80000000Y-78500000D02*
G75*
G02*
X83500000Y-75000000I3500000J0D01*
G01*
X83500000Y-125000000D02*
G75*
G02*
X80000000Y-121500000I0J3500000D01*
G01*
X80000000Y-78500000D02*
X80000000Y-121500000D01*
G36*
G01*
X95543555Y-82174388D02*
X96066636Y-82004429D01*
G75*
G02*
X96318650Y-82132837I61803J-190211D01*
G01*
X96442257Y-82513260D01*
G75*
G02*
X96313849Y-82765274I-190211J-61803D01*
G01*
X95790768Y-82935233D01*
G75*
G02*
X95538754Y-82806825I-61803J190211D01*
G01*
X95415147Y-82426402D01*
G75*
G02*
X95543555Y-82174388I190211J61803D01*
G01*
G37*
G36*
G01*
X95033677Y-80605144D02*
X95556758Y-80435185D01*
G75*
G02*
X95808772Y-80563593I61803J-190211D01*
G01*
X95932379Y-80944016D01*
G75*
G02*
X95803971Y-81196030I-190211J-61803D01*
G01*
X95280890Y-81365989D01*
G75*
G02*
X95028876Y-81237581I-61803J190211D01*
G01*
X94905269Y-80857158D01*
G75*
G02*
X95033677Y-80605144I190211J61803D01*
G01*
G37*
G36*
G01*
X88855955Y-87243296D02*
X89179237Y-86798336D01*
G75*
G02*
X89458597Y-86754090I161803J-117557D01*
G01*
X89782203Y-86989204D01*
G75*
G02*
X89826449Y-87268564I-117557J-161803D01*
G01*
X89503167Y-87713524D01*
G75*
G02*
X89223807Y-87757770I-161803J117557D01*
G01*
X88900201Y-87522656D01*
G75*
G02*
X88855955Y-87243296I117557J161803D01*
G01*
G37*
G36*
G01*
X87521077Y-86273450D02*
X87844359Y-85828490D01*
G75*
G02*
X88123719Y-85784244I161803J-117557D01*
G01*
X88447325Y-86019358D01*
G75*
G02*
X88491571Y-86298718I-117557J-161803D01*
G01*
X88168289Y-86743678D01*
G75*
G02*
X87888929Y-86787924I-161803J117557D01*
G01*
X87565323Y-86552810D01*
G75*
G02*
X87521077Y-86273450I117557J161803D01*
G01*
G37*
G36*
G01*
X86425000Y-95275000D02*
X86425000Y-94725000D01*
G75*
G02*
X86625000Y-94525000I200000J0D01*
G01*
X87025000Y-94525000D01*
G75*
G02*
X87225000Y-94725000I0J-200000D01*
G01*
X87225000Y-95275000D01*
G75*
G02*
X87025000Y-95475000I-200000J0D01*
G01*
X86625000Y-95475000D01*
G75*
G02*
X86425000Y-95275000I0J200000D01*
G01*
G37*
G36*
G01*
X84775000Y-95275000D02*
X84775000Y-94725000D01*
G75*
G02*
X84975000Y-94525000I200000J0D01*
G01*
X85375000Y-94525000D01*
G75*
G02*
X85575000Y-94725000I0J-200000D01*
G01*
X85575000Y-95275000D01*
G75*
G02*
X85375000Y-95475000I-200000J0D01*
G01*
X84975000Y-95475000D01*
G75*
G02*
X84775000Y-95275000I0J200000D01*
G01*
G37*
G36*
G01*
X89179237Y-103201664D02*
X88855955Y-102756704D01*
G75*
G02*
X88900201Y-102477344I161803J117557D01*
G01*
X89223807Y-102242230D01*
G75*
G02*
X89503167Y-102286476I117557J-161803D01*
G01*
X89826449Y-102731436D01*
G75*
G02*
X89782203Y-103010796I-161803J-117557D01*
G01*
X89458597Y-103245910D01*
G75*
G02*
X89179237Y-103201664I-117557J161803D01*
G01*
G37*
G36*
G01*
X87844359Y-104171510D02*
X87521077Y-103726550D01*
G75*
G02*
X87565323Y-103447190I161803J117557D01*
G01*
X87888929Y-103212076D01*
G75*
G02*
X88168289Y-103256322I117557J-161803D01*
G01*
X88491571Y-103701282D01*
G75*
G02*
X88447325Y-103980642I-161803J-117557D01*
G01*
X88123719Y-104215756D01*
G75*
G02*
X87844359Y-104171510I-117557J161803D01*
G01*
G37*
G36*
G01*
X96066636Y-107995571D02*
X95543555Y-107825612D01*
G75*
G02*
X95415147Y-107573598I61803J190211D01*
G01*
X95538754Y-107193175D01*
G75*
G02*
X95790768Y-107064767I190211J-61803D01*
G01*
X96313849Y-107234726D01*
G75*
G02*
X96442257Y-107486740I-61803J-190211D01*
G01*
X96318650Y-107867163D01*
G75*
G02*
X96066636Y-107995571I-190211J61803D01*
G01*
G37*
G36*
G01*
X95556758Y-109564815D02*
X95033677Y-109394856D01*
G75*
G02*
X94905269Y-109142842I61803J190211D01*
G01*
X95028876Y-108762419D01*
G75*
G02*
X95280890Y-108634011I190211J-61803D01*
G01*
X95803971Y-108803970D01*
G75*
G02*
X95932379Y-109055984I-61803J-190211D01*
G01*
X95808772Y-109436407D01*
G75*
G02*
X95556758Y-109564815I-190211J61803D01*
G01*
G37*
G36*
G01*
X104456445Y-107825612D02*
X103933364Y-107995571D01*
G75*
G02*
X103681350Y-107867163I-61803J190211D01*
G01*
X103557743Y-107486740D01*
G75*
G02*
X103686151Y-107234726I190211J61803D01*
G01*
X104209232Y-107064767D01*
G75*
G02*
X104461246Y-107193175I61803J-190211D01*
G01*
X104584853Y-107573598D01*
G75*
G02*
X104456445Y-107825612I-190211J-61803D01*
G01*
G37*
G36*
G01*
X104966323Y-109394856D02*
X104443242Y-109564815D01*
G75*
G02*
X104191228Y-109436407I-61803J190211D01*
G01*
X104067621Y-109055984D01*
G75*
G02*
X104196029Y-108803970I190211J61803D01*
G01*
X104719110Y-108634011D01*
G75*
G02*
X104971124Y-108762419I61803J-190211D01*
G01*
X105094731Y-109142842D01*
G75*
G02*
X104966323Y-109394856I-190211J-61803D01*
G01*
G37*
G36*
G01*
X111144045Y-102756704D02*
X110820763Y-103201664D01*
G75*
G02*
X110541403Y-103245910I-161803J117557D01*
G01*
X110217797Y-103010796D01*
G75*
G02*
X110173551Y-102731436I117557J161803D01*
G01*
X110496833Y-102286476D01*
G75*
G02*
X110776193Y-102242230I161803J-117557D01*
G01*
X111099799Y-102477344D01*
G75*
G02*
X111144045Y-102756704I-117557J-161803D01*
G01*
G37*
G36*
G01*
X112478923Y-103726550D02*
X112155641Y-104171510D01*
G75*
G02*
X111876281Y-104215756I-161803J117557D01*
G01*
X111552675Y-103980642D01*
G75*
G02*
X111508429Y-103701282I117557J161803D01*
G01*
X111831711Y-103256322D01*
G75*
G02*
X112111071Y-103212076I161803J-117557D01*
G01*
X112434677Y-103447190D01*
G75*
G02*
X112478923Y-103726550I-117557J-161803D01*
G01*
G37*
G36*
G01*
X113575000Y-94725000D02*
X113575000Y-95275000D01*
G75*
G02*
X113375000Y-95475000I-200000J0D01*
G01*
X112975000Y-95475000D01*
G75*
G02*
X112775000Y-95275000I0J200000D01*
G01*
X112775000Y-94725000D01*
G75*
G02*
X112975000Y-94525000I200000J0D01*
G01*
X113375000Y-94525000D01*
G75*
G02*
X113575000Y-94725000I0J-200000D01*
G01*
G37*
G36*
G01*
X115225000Y-94725000D02*
X115225000Y-95275000D01*
G75*
G02*
X115025000Y-95475000I-200000J0D01*
G01*
X114625000Y-95475000D01*
G75*
G02*
X114425000Y-95275000I0J200000D01*
G01*
X114425000Y-94725000D01*
G75*
G02*
X114625000Y-94525000I200000J0D01*
G01*
X115025000Y-94525000D01*
G75*
G02*
X115225000Y-94725000I0J-200000D01*
G01*
G37*
G36*
G01*
X112155641Y-85828490D02*
X112478923Y-86273450D01*
G75*
G02*
X112434677Y-86552810I-161803J-117557D01*
G01*
X112111071Y-86787924D01*
G75*
G02*
X111831711Y-86743678I-117557J161803D01*
G01*
X111508429Y-86298718D01*
G75*
G02*
X111552675Y-86019358I161803J117557D01*
G01*
X111876281Y-85784244D01*
G75*
G02*
X112155641Y-85828490I117557J-161803D01*
G01*
G37*
G36*
G01*
X110820763Y-86798336D02*
X111144045Y-87243296D01*
G75*
G02*
X111099799Y-87522656I-161803J-117557D01*
G01*
X110776193Y-87757770D01*
G75*
G02*
X110496833Y-87713524I-117557J161803D01*
G01*
X110173551Y-87268564D01*
G75*
G02*
X110217797Y-86989204I161803J117557D01*
G01*
X110541403Y-86754090D01*
G75*
G02*
X110820763Y-86798336I117557J-161803D01*
G01*
G37*
G36*
G01*
X103933364Y-82004429D02*
X104456445Y-82174388D01*
G75*
G02*
X104584853Y-82426402I-61803J-190211D01*
G01*
X104461246Y-82806825D01*
G75*
G02*
X104209232Y-82935233I-190211J61803D01*
G01*
X103686151Y-82765274D01*
G75*
G02*
X103557743Y-82513260I61803J190211D01*
G01*
X103681350Y-82132837D01*
G75*
G02*
X103933364Y-82004429I190211J-61803D01*
G01*
G37*
G36*
G01*
X104443242Y-80435185D02*
X104966323Y-80605144D01*
G75*
G02*
X105094731Y-80857158I-61803J-190211D01*
G01*
X104971124Y-81237581D01*
G75*
G02*
X104719110Y-81365989I-190211J61803D01*
G01*
X104196029Y-81196030D01*
G75*
G02*
X104067621Y-80944016I61803J190211D01*
G01*
X104191228Y-80563593D01*
G75*
G02*
X104443242Y-80435185I190211J-61803D01*
G01*
G37*
D11*
X103980000Y-116750000D03*
X103980000Y-121250000D03*
X96020000Y-121250000D03*
X96020000Y-116750000D03*
D12*
X101270000Y-102365000D03*
X101270000Y-103635000D03*
X100000000Y-102365000D03*
X100000000Y-103635000D03*
X98730000Y-102365000D03*
X98730000Y-103635000D03*
D13*
X97460000Y-103000000D03*
X102540000Y-104016000D03*
X102540000Y-101984000D03*
G36*
G01*
X91720904Y-84668116D02*
X92732175Y-83933385D01*
G75*
G02*
X93081375Y-83988693I146946J-202254D01*
G01*
X93522214Y-84595456D01*
G75*
G02*
X93466906Y-84944656I-202254J-146946D01*
G01*
X92455635Y-85679387D01*
G75*
G02*
X92106435Y-85624079I-146946J202254D01*
G01*
X91665596Y-85017316D01*
G75*
G02*
X91720904Y-84668116I202254J146946D01*
G01*
G37*
G36*
G01*
X90075106Y-82402868D02*
X91086377Y-81668137D01*
G75*
G02*
X91435577Y-81723445I146946J-202254D01*
G01*
X91876416Y-82330208D01*
G75*
G02*
X91821108Y-82679408I-202254J-146946D01*
G01*
X90809837Y-83414139D01*
G75*
G02*
X90460637Y-83358831I-146946J202254D01*
G01*
X90019798Y-82752068D01*
G75*
G02*
X90075106Y-82402868I202254J146946D01*
G01*
G37*
G36*
G01*
X87229142Y-91507661D02*
X87615413Y-90318840D01*
G75*
G02*
X87930431Y-90158330I237764J-77254D01*
G01*
X88643724Y-90390093D01*
G75*
G02*
X88804234Y-90705111I-77254J-237764D01*
G01*
X88417963Y-91893932D01*
G75*
G02*
X88102945Y-92054442I-237764J77254D01*
G01*
X87389652Y-91822679D01*
G75*
G02*
X87229142Y-91507661I77254J237764D01*
G01*
G37*
G36*
G01*
X84566184Y-90642413D02*
X84952455Y-89453592D01*
G75*
G02*
X85267473Y-89293082I237764J-77254D01*
G01*
X85980766Y-89524845D01*
G75*
G02*
X86141276Y-89839863I-77254J-237764D01*
G01*
X85755005Y-91028684D01*
G75*
G02*
X85439987Y-91189194I-237764J77254D01*
G01*
X84726694Y-90957431D01*
G75*
G02*
X84566184Y-90642413I77254J237764D01*
G01*
G37*
G36*
G01*
X87615413Y-99681160D02*
X87229142Y-98492339D01*
G75*
G02*
X87389652Y-98177321I237764J77254D01*
G01*
X88102945Y-97945558D01*
G75*
G02*
X88417963Y-98106068I77254J-237764D01*
G01*
X88804234Y-99294889D01*
G75*
G02*
X88643724Y-99609907I-237764J-77254D01*
G01*
X87930431Y-99841670D01*
G75*
G02*
X87615413Y-99681160I-77254J237764D01*
G01*
G37*
G36*
G01*
X84952455Y-100546408D02*
X84566184Y-99357587D01*
G75*
G02*
X84726694Y-99042569I237764J77254D01*
G01*
X85439987Y-98810806D01*
G75*
G02*
X85755005Y-98971316I77254J-237764D01*
G01*
X86141276Y-100160137D01*
G75*
G02*
X85980766Y-100475155I-237764J-77254D01*
G01*
X85267473Y-100706918D01*
G75*
G02*
X84952455Y-100546408I-77254J237764D01*
G01*
G37*
G36*
G01*
X92732175Y-106066615D02*
X91720904Y-105331884D01*
G75*
G02*
X91665596Y-104982684I146946J202254D01*
G01*
X92106435Y-104375921D01*
G75*
G02*
X92455635Y-104320613I202254J-146946D01*
G01*
X93466906Y-105055344D01*
G75*
G02*
X93522214Y-105404544I-146946J-202254D01*
G01*
X93081375Y-106011307D01*
G75*
G02*
X92732175Y-106066615I-202254J146946D01*
G01*
G37*
G36*
G01*
X91086377Y-108331863D02*
X90075106Y-107597132D01*
G75*
G02*
X90019798Y-107247932I146946J202254D01*
G01*
X90460637Y-106641169D01*
G75*
G02*
X90809837Y-106585861I202254J-146946D01*
G01*
X91821108Y-107320592D01*
G75*
G02*
X91876416Y-107669792I-146946J-202254D01*
G01*
X91435577Y-108276555D01*
G75*
G02*
X91086377Y-108331863I-202254J146946D01*
G01*
G37*
G36*
G01*
X100625000Y-108225000D02*
X99375000Y-108225000D01*
G75*
G02*
X99125000Y-107975000I0J250000D01*
G01*
X99125000Y-107225000D01*
G75*
G02*
X99375000Y-106975000I250000J0D01*
G01*
X100625000Y-106975000D01*
G75*
G02*
X100875000Y-107225000I0J-250000D01*
G01*
X100875000Y-107975000D01*
G75*
G02*
X100625000Y-108225000I-250000J0D01*
G01*
G37*
G36*
G01*
X100625000Y-111025000D02*
X99375000Y-111025000D01*
G75*
G02*
X99125000Y-110775000I0J250000D01*
G01*
X99125000Y-110025000D01*
G75*
G02*
X99375000Y-109775000I250000J0D01*
G01*
X100625000Y-109775000D01*
G75*
G02*
X100875000Y-110025000I0J-250000D01*
G01*
X100875000Y-110775000D01*
G75*
G02*
X100625000Y-111025000I-250000J0D01*
G01*
G37*
G36*
G01*
X109924894Y-107597132D02*
X108913623Y-108331863D01*
G75*
G02*
X108564423Y-108276555I-146946J202254D01*
G01*
X108123584Y-107669792D01*
G75*
G02*
X108178892Y-107320592I202254J146946D01*
G01*
X109190163Y-106585861D01*
G75*
G02*
X109539363Y-106641169I146946J-202254D01*
G01*
X109980202Y-107247932D01*
G75*
G02*
X109924894Y-107597132I-202254J-146946D01*
G01*
G37*
G36*
G01*
X108279096Y-105331884D02*
X107267825Y-106066615D01*
G75*
G02*
X106918625Y-106011307I-146946J202254D01*
G01*
X106477786Y-105404544D01*
G75*
G02*
X106533094Y-105055344I202254J146946D01*
G01*
X107544365Y-104320613D01*
G75*
G02*
X107893565Y-104375921I146946J-202254D01*
G01*
X108334404Y-104982684D01*
G75*
G02*
X108279096Y-105331884I-202254J-146946D01*
G01*
G37*
G36*
G01*
X112770858Y-98492339D02*
X112384587Y-99681160D01*
G75*
G02*
X112069569Y-99841670I-237764J77254D01*
G01*
X111356276Y-99609907D01*
G75*
G02*
X111195766Y-99294889I77254J237764D01*
G01*
X111582037Y-98106068D01*
G75*
G02*
X111897055Y-97945558I237764J-77254D01*
G01*
X112610348Y-98177321D01*
G75*
G02*
X112770858Y-98492339I-77254J-237764D01*
G01*
G37*
G36*
G01*
X115433816Y-99357587D02*
X115047545Y-100546408D01*
G75*
G02*
X114732527Y-100706918I-237764J77254D01*
G01*
X114019234Y-100475155D01*
G75*
G02*
X113858724Y-100160137I77254J237764D01*
G01*
X114244995Y-98971316D01*
G75*
G02*
X114560013Y-98810806I237764J-77254D01*
G01*
X115273306Y-99042569D01*
G75*
G02*
X115433816Y-99357587I-77254J-237764D01*
G01*
G37*
G36*
G01*
X112384587Y-90318840D02*
X112770858Y-91507661D01*
G75*
G02*
X112610348Y-91822679I-237764J-77254D01*
G01*
X111897055Y-92054442D01*
G75*
G02*
X111582037Y-91893932I-77254J237764D01*
G01*
X111195766Y-90705111D01*
G75*
G02*
X111356276Y-90390093I237764J77254D01*
G01*
X112069569Y-90158330D01*
G75*
G02*
X112384587Y-90318840I77254J-237764D01*
G01*
G37*
G36*
G01*
X115047545Y-89453592D02*
X115433816Y-90642413D01*
G75*
G02*
X115273306Y-90957431I-237764J-77254D01*
G01*
X114560013Y-91189194D01*
G75*
G02*
X114244995Y-91028684I-77254J237764D01*
G01*
X113858724Y-89839863D01*
G75*
G02*
X114019234Y-89524845I237764J77254D01*
G01*
X114732527Y-89293082D01*
G75*
G02*
X115047545Y-89453592I77254J-237764D01*
G01*
G37*
G36*
G01*
X107267825Y-83933385D02*
X108279096Y-84668116D01*
G75*
G02*
X108334404Y-85017316I-146946J-202254D01*
G01*
X107893565Y-85624079D01*
G75*
G02*
X107544365Y-85679387I-202254J146946D01*
G01*
X106533094Y-84944656D01*
G75*
G02*
X106477786Y-84595456I146946J202254D01*
G01*
X106918625Y-83988693D01*
G75*
G02*
X107267825Y-83933385I202254J-146946D01*
G01*
G37*
G36*
G01*
X108913623Y-81668137D02*
X109924894Y-82402868D01*
G75*
G02*
X109980202Y-82752068I-146946J-202254D01*
G01*
X109539363Y-83358831D01*
G75*
G02*
X109190163Y-83414139I-202254J146946D01*
G01*
X108178892Y-82679408D01*
G75*
G02*
X108123584Y-82330208I146946J202254D01*
G01*
X108564423Y-81723445D01*
G75*
G02*
X108913623Y-81668137I202254J-146946D01*
G01*
G37*
G36*
G01*
X99375000Y-78975000D02*
X100625000Y-78975000D01*
G75*
G02*
X100875000Y-79225000I0J-250000D01*
G01*
X100875000Y-79975000D01*
G75*
G02*
X100625000Y-80225000I-250000J0D01*
G01*
X99375000Y-80225000D01*
G75*
G02*
X99125000Y-79975000I0J250000D01*
G01*
X99125000Y-79225000D01*
G75*
G02*
X99375000Y-78975000I250000J0D01*
G01*
G37*
G36*
G01*
X99375000Y-81775000D02*
X100625000Y-81775000D01*
G75*
G02*
X100875000Y-82025000I0J-250000D01*
G01*
X100875000Y-82775000D01*
G75*
G02*
X100625000Y-83025000I-250000J0D01*
G01*
X99375000Y-83025000D01*
G75*
G02*
X99125000Y-82775000I0J250000D01*
G01*
X99125000Y-82025000D01*
G75*
G02*
X99375000Y-81775000I250000J0D01*
G01*
G37*
D14*
X116500000Y-121500000D03*
X116500000Y-78500000D03*
X83500000Y-78500000D03*
X83500000Y-121500000D03*
G36*
G01*
X101500000Y-91340000D02*
X101500000Y-91040000D01*
G75*
G02*
X101650000Y-90890000I150000J0D01*
G01*
X103300000Y-90890000D01*
G75*
G02*
X103450000Y-91040000I0J-150000D01*
G01*
X103450000Y-91340000D01*
G75*
G02*
X103300000Y-91490000I-150000J0D01*
G01*
X101650000Y-91490000D01*
G75*
G02*
X101500000Y-91340000I0J150000D01*
G01*
G37*
G36*
G01*
X101500000Y-92610000D02*
X101500000Y-92310000D01*
G75*
G02*
X101650000Y-92160000I150000J0D01*
G01*
X103300000Y-92160000D01*
G75*
G02*
X103450000Y-92310000I0J-150000D01*
G01*
X103450000Y-92610000D01*
G75*
G02*
X103300000Y-92760000I-150000J0D01*
G01*
X101650000Y-92760000D01*
G75*
G02*
X101500000Y-92610000I0J150000D01*
G01*
G37*
G36*
G01*
X101500000Y-93880000D02*
X101500000Y-93580000D01*
G75*
G02*
X101650000Y-93430000I150000J0D01*
G01*
X103300000Y-93430000D01*
G75*
G02*
X103450000Y-93580000I0J-150000D01*
G01*
X103450000Y-93880000D01*
G75*
G02*
X103300000Y-94030000I-150000J0D01*
G01*
X101650000Y-94030000D01*
G75*
G02*
X101500000Y-93880000I0J150000D01*
G01*
G37*
G36*
G01*
X101500000Y-95150000D02*
X101500000Y-94850000D01*
G75*
G02*
X101650000Y-94700000I150000J0D01*
G01*
X103300000Y-94700000D01*
G75*
G02*
X103450000Y-94850000I0J-150000D01*
G01*
X103450000Y-95150000D01*
G75*
G02*
X103300000Y-95300000I-150000J0D01*
G01*
X101650000Y-95300000D01*
G75*
G02*
X101500000Y-95150000I0J150000D01*
G01*
G37*
G36*
G01*
X101500000Y-96420000D02*
X101500000Y-96120000D01*
G75*
G02*
X101650000Y-95970000I150000J0D01*
G01*
X103300000Y-95970000D01*
G75*
G02*
X103450000Y-96120000I0J-150000D01*
G01*
X103450000Y-96420000D01*
G75*
G02*
X103300000Y-96570000I-150000J0D01*
G01*
X101650000Y-96570000D01*
G75*
G02*
X101500000Y-96420000I0J150000D01*
G01*
G37*
G36*
G01*
X101500000Y-97690000D02*
X101500000Y-97390000D01*
G75*
G02*
X101650000Y-97240000I150000J0D01*
G01*
X103300000Y-97240000D01*
G75*
G02*
X103450000Y-97390000I0J-150000D01*
G01*
X103450000Y-97690000D01*
G75*
G02*
X103300000Y-97840000I-150000J0D01*
G01*
X101650000Y-97840000D01*
G75*
G02*
X101500000Y-97690000I0J150000D01*
G01*
G37*
G36*
G01*
X101500000Y-98960000D02*
X101500000Y-98660000D01*
G75*
G02*
X101650000Y-98510000I150000J0D01*
G01*
X103300000Y-98510000D01*
G75*
G02*
X103450000Y-98660000I0J-150000D01*
G01*
X103450000Y-98960000D01*
G75*
G02*
X103300000Y-99110000I-150000J0D01*
G01*
X101650000Y-99110000D01*
G75*
G02*
X101500000Y-98960000I0J150000D01*
G01*
G37*
G36*
G01*
X96550000Y-98960000D02*
X96550000Y-98660000D01*
G75*
G02*
X96700000Y-98510000I150000J0D01*
G01*
X98350000Y-98510000D01*
G75*
G02*
X98500000Y-98660000I0J-150000D01*
G01*
X98500000Y-98960000D01*
G75*
G02*
X98350000Y-99110000I-150000J0D01*
G01*
X96700000Y-99110000D01*
G75*
G02*
X96550000Y-98960000I0J150000D01*
G01*
G37*
G36*
G01*
X96550000Y-97690000D02*
X96550000Y-97390000D01*
G75*
G02*
X96700000Y-97240000I150000J0D01*
G01*
X98350000Y-97240000D01*
G75*
G02*
X98500000Y-97390000I0J-150000D01*
G01*
X98500000Y-97690000D01*
G75*
G02*
X98350000Y-97840000I-150000J0D01*
G01*
X96700000Y-97840000D01*
G75*
G02*
X96550000Y-97690000I0J150000D01*
G01*
G37*
G36*
G01*
X96550000Y-96420000D02*
X96550000Y-96120000D01*
G75*
G02*
X96700000Y-95970000I150000J0D01*
G01*
X98350000Y-95970000D01*
G75*
G02*
X98500000Y-96120000I0J-150000D01*
G01*
X98500000Y-96420000D01*
G75*
G02*
X98350000Y-96570000I-150000J0D01*
G01*
X96700000Y-96570000D01*
G75*
G02*
X96550000Y-96420000I0J150000D01*
G01*
G37*
G36*
G01*
X96550000Y-95150000D02*
X96550000Y-94850000D01*
G75*
G02*
X96700000Y-94700000I150000J0D01*
G01*
X98350000Y-94700000D01*
G75*
G02*
X98500000Y-94850000I0J-150000D01*
G01*
X98500000Y-95150000D01*
G75*
G02*
X98350000Y-95300000I-150000J0D01*
G01*
X96700000Y-95300000D01*
G75*
G02*
X96550000Y-95150000I0J150000D01*
G01*
G37*
G36*
G01*
X96550000Y-93880000D02*
X96550000Y-93580000D01*
G75*
G02*
X96700000Y-93430000I150000J0D01*
G01*
X98350000Y-93430000D01*
G75*
G02*
X98500000Y-93580000I0J-150000D01*
G01*
X98500000Y-93880000D01*
G75*
G02*
X98350000Y-94030000I-150000J0D01*
G01*
X96700000Y-94030000D01*
G75*
G02*
X96550000Y-93880000I0J150000D01*
G01*
G37*
G36*
G01*
X96550000Y-92610000D02*
X96550000Y-92310000D01*
G75*
G02*
X96700000Y-92160000I150000J0D01*
G01*
X98350000Y-92160000D01*
G75*
G02*
X98500000Y-92310000I0J-150000D01*
G01*
X98500000Y-92610000D01*
G75*
G02*
X98350000Y-92760000I-150000J0D01*
G01*
X96700000Y-92760000D01*
G75*
G02*
X96550000Y-92610000I0J150000D01*
G01*
G37*
G36*
G01*
X96550000Y-91340000D02*
X96550000Y-91040000D01*
G75*
G02*
X96700000Y-90890000I150000J0D01*
G01*
X98350000Y-90890000D01*
G75*
G02*
X98500000Y-91040000I0J-150000D01*
G01*
X98500000Y-91340000D01*
G75*
G02*
X98350000Y-91490000I-150000J0D01*
G01*
X96700000Y-91490000D01*
G75*
G02*
X96550000Y-91340000I0J150000D01*
G01*
G37*
G36*
G01*
X94425000Y-95275000D02*
X94425000Y-94725000D01*
G75*
G02*
X94625000Y-94525000I200000J0D01*
G01*
X95025000Y-94525000D01*
G75*
G02*
X95225000Y-94725000I0J-200000D01*
G01*
X95225000Y-95275000D01*
G75*
G02*
X95025000Y-95475000I-200000J0D01*
G01*
X94625000Y-95475000D01*
G75*
G02*
X94425000Y-95275000I0J200000D01*
G01*
G37*
G36*
G01*
X92775000Y-95275000D02*
X92775000Y-94725000D01*
G75*
G02*
X92975000Y-94525000I200000J0D01*
G01*
X93375000Y-94525000D01*
G75*
G02*
X93575000Y-94725000I0J-200000D01*
G01*
X93575000Y-95275000D01*
G75*
G02*
X93375000Y-95475000I-200000J0D01*
G01*
X92975000Y-95475000D01*
G75*
G02*
X92775000Y-95275000I0J200000D01*
G01*
G37*
G36*
G01*
X99675000Y-114000000D02*
X99675000Y-114500000D01*
G75*
G02*
X99450000Y-114725000I-225000J0D01*
G01*
X99000000Y-114725000D01*
G75*
G02*
X98775000Y-114500000I0J225000D01*
G01*
X98775000Y-114000000D01*
G75*
G02*
X99000000Y-113775000I225000J0D01*
G01*
X99450000Y-113775000D01*
G75*
G02*
X99675000Y-114000000I0J-225000D01*
G01*
G37*
G36*
G01*
X101225000Y-114000000D02*
X101225000Y-114500000D01*
G75*
G02*
X101000000Y-114725000I-225000J0D01*
G01*
X100550000Y-114725000D01*
G75*
G02*
X100325000Y-114500000I0J225000D01*
G01*
X100325000Y-114000000D01*
G75*
G02*
X100550000Y-113775000I225000J0D01*
G01*
X101000000Y-113775000D01*
G75*
G02*
X101225000Y-114000000I0J-225000D01*
G01*
G37*
G36*
G01*
X93675000Y-90940000D02*
X93675000Y-91440000D01*
G75*
G02*
X93450000Y-91665000I-225000J0D01*
G01*
X93000000Y-91665000D01*
G75*
G02*
X92775000Y-91440000I0J225000D01*
G01*
X92775000Y-90940000D01*
G75*
G02*
X93000000Y-90715000I225000J0D01*
G01*
X93450000Y-90715000D01*
G75*
G02*
X93675000Y-90940000I0J-225000D01*
G01*
G37*
G36*
G01*
X95225000Y-90940000D02*
X95225000Y-91440000D01*
G75*
G02*
X95000000Y-91665000I-225000J0D01*
G01*
X94550000Y-91665000D01*
G75*
G02*
X94325000Y-91440000I0J225000D01*
G01*
X94325000Y-90940000D01*
G75*
G02*
X94550000Y-90715000I225000J0D01*
G01*
X95000000Y-90715000D01*
G75*
G02*
X95225000Y-90940000I0J-225000D01*
G01*
G37*
M02*
